<?xml version="1.0" encoding="UTF-8"?>
<svg version="1.1" xmlns="http://www.w3.org/2000/svg" width="420" height="292">
<path d="M0 0 C138.6 0 277.2 0 420 0 C420 96.36 420 192.72 420 292 C281.4 292 142.8 292 0 292 C0 195.64 0 99.28 0 0 Z " fill="#FEDCDC" transform="translate(0,0)"/>
<path d="M0 0 C0.79500916 0.34889786 1.59001831 0.69779572 2.40911865 1.05726624 C5.03987099 2.21318605 7.6684229 3.37401639 10.296875 4.53515625 C12.14970183 5.35099721 14.00256701 6.16675108 15.85546875 6.98242188 C29.11048369 12.82521672 42.32581183 18.75417914 55.5267334 24.71798706 C69.00730299 30.80696084 82.53460493 36.78230147 96.08740234 42.70855713 C113.4403464 50.2994251 130.71863654 58.05241091 147.97521973 65.85958862 C152.9897159 68.12688376 158.01574157 70.3675342 163.046875 72.59765625 C163.046875 73.25765625 163.046875 73.91765625 163.046875 74.59765625 C137.63549805 85.89160156 137.63549805 85.89160156 112.22412109 97.18554688 C111.293992 97.59893814 110.36386292 98.01232941 109.4055481 98.43824768 C107.5507931 99.2625821 105.69603643 100.08691276 103.84127808 100.91123962 C99.21022665 102.96946486 94.57920523 105.02775756 89.94824219 107.08618164 C81.44277703 110.86671161 72.93713993 114.64685117 64.43031311 118.42431641 C62.51179954 119.27633394 60.5933729 120.12854725 58.67503357 120.98095703 C53.95665982 123.07748768 49.23725079 125.17160822 44.51538086 127.26025391 C36.22331736 130.93229246 27.94489048 134.62668414 19.71583557 138.43824768 C16.18649836 140.07260354 12.65129064 141.69404813 9.11593628 143.31533813 C7.4613351 144.07929309 5.80997062 144.85030257 4.16213989 145.62875366 C1.9034462 146.69567854 -0.36492057 147.73868572 -2.63671875 148.77734375 C-3.29393921 149.09595871 -3.95115967 149.41457367 -4.6282959 149.74284363 C-7.67457499 151.10946728 -9.55181516 151.67808014 -12.85742188 151.015625 C-14.38979492 150.31373047 -14.38979492 150.31373047 -15.953125 149.59765625 C-17.31907641 149.01575163 -18.68504468 148.43388661 -20.05102539 147.85205078 C-21.63554976 147.14771234 -23.21872077 146.4403242 -24.80078125 145.73046875 C-25.66807358 145.34406219 -26.53536591 144.95765564 -27.42893982 144.55953979 C-30.29231912 143.28314143 -33.15394863 142.00286744 -36.015625 140.72265625 C-38.03893044 139.82001642 -40.06237024 138.91767771 -42.0859375 138.015625 C-46.29104964 136.14081638 -50.49557972 134.26471126 -54.69970703 132.38769531 C-63.35611848 128.52402845 -72.01950821 124.67608761 -80.68292236 120.82815552 C-85.34229793 118.75850251 -90.00122396 116.68783813 -94.66015625 114.6171875 C-95.58620667 114.20562912 -96.51225708 113.79407074 -97.46636963 113.37004089 C-103.20207565 110.82082785 -108.93732132 108.27058178 -114.67225647 105.71963501 C-138.0821621 95.30677108 -161.50333342 84.92041672 -184.953125 74.59765625 C-184.953125 73.93765625 -184.953125 73.27765625 -184.953125 72.59765625 C-163.28620546 62.73720243 -141.59078759 52.95299258 -119.77737427 43.42047119 C-107.13241745 37.89296548 -94.52896396 32.28059211 -81.953125 26.59765625 C-63.7610344 18.37724882 -45.49712667 10.32573994 -27.20277405 2.33572388 C-26.51009933 2.03302582 -25.81742462 1.73032776 -25.10375977 1.41845703 C-24.42894562 1.12666565 -23.75413147 0.83487427 -23.05886841 0.53424072 C-21.55040205 -0.13668915 -20.05488797 -0.83703947 -18.56881714 -1.55621338 C-17.77903473 -1.93227722 -16.98925232 -2.30834106 -16.17553711 -2.69580078 C-15.46280136 -3.04530792 -14.75006561 -3.39481506 -14.01573181 -3.75491333 C-9.20998514 -5.26338628 -4.36165106 -1.92947148 0 0 Z " fill="#302939" transform="translate(215.953125,21.40234375)"/>
<path d="M0 0 C4.03228086 21.52310615 6.51564264 43.07719349 6 65 C4.8847998 65.09704224 4.8847998 65.09704224 3.74707031 65.19604492 C-31.45868118 68.35588317 -64.50028535 77.06278983 -93.43359375 98.1875 C-95.5819462 99.70475348 -97.61279486 100.9164459 -100 102 C-100.45246094 101.68289062 -100.90492188 101.36578125 -101.37109375 101.0390625 C-123.11233672 86.16131211 -146.5948991 75.02318619 -172 68 C-172.80115234 67.77699219 -173.60230469 67.55398437 -174.42773438 67.32421875 C-188.63408797 63.34754425 -188.63408797 63.34754425 -203 65 C-203.73653446 44.22406245 -202.63622296 21.90866889 -196 2 C-191.79491905 2.56297004 -188.36034456 3.53636391 -184.51171875 5.30859375 C-183.4333374 5.7994043 -182.35495605 6.29021484 -181.24389648 6.79589844 C-180.07028564 7.33762695 -178.8966748 7.87935547 -177.6875 8.4375 C-175.09027672 9.62231676 -172.4904414 10.80135487 -169.890625 11.98046875 C-169.19513046 12.2966214 -168.49963593 12.61277405 -167.7830658 12.93850708 C-157.6929714 17.51581395 -147.53059158 21.93048456 -137.37875366 26.36862183 C-135.71040549 27.09815282 -134.0423077 27.82825669 -132.37446594 28.5589447 C-130.73578962 29.27594967 -129.09605822 29.99054849 -127.45524597 30.70265198 C-123.10319241 32.59985514 -118.79506548 34.56185946 -114.51611328 36.61914062 C-113.16375328 37.25888824 -113.16375328 37.25888824 -111.78407288 37.91156006 C-110.05621377 38.73171448 -108.33563434 39.56744543 -106.62400818 40.42095947 C-101.98618858 42.63580847 -101.98618858 42.63580847 -96.96118164 42.47607422 C-95.49539673 41.74541748 -95.49539673 41.74541748 -94 41 C-92.67965038 40.42428611 -91.35773304 39.85216055 -90.03466797 39.28271484 C-88.51915004 38.59510716 -87.00507097 37.90432232 -85.4921875 37.2109375 C-84.66556107 36.83520096 -83.83893463 36.45946442 -82.98725891 36.07234192 C-81.20817426 35.2634507 -79.42967368 34.45327384 -77.65170288 33.64193726 C-72.93087381 31.48794582 -68.20565267 29.34363631 -63.48046875 27.19921875 C-62.52068619 26.76344009 -61.56090363 26.32766144 -60.57203674 25.87867737 C-49.68127866 20.93914193 -38.7509125 16.08962225 -27.81396484 11.25341797 C-26.43195535 10.64162596 -25.04995634 10.02981025 -23.66796875 9.41796875 C-23.01505859 9.12966187 -22.36214844 8.84135498 -21.68945312 8.54431152 C-18.51398075 7.13711857 -15.35370291 5.7053318 -12.21337891 4.22119141 C-11.04597168 3.66995605 -9.87856445 3.1187207 -8.67578125 2.55078125 C-7.65009033 2.05876221 -6.62439941 1.56674316 -5.56762695 1.05981445 C-3 0 -3 0 0 0 Z " fill="#312A3A" transform="translate(304,150)"/>
</svg>
